<?xml version="1.0" encoding="utf-8"?>
<!-- Generator: Adobe Illustrator 22.0.1, SVG Export Plug-In . SVG Version: 6.00 Build 0)  -->
<svg version="1.1" id="Layer_1" xmlns="http://www.w3.org/2000/svg" xmlns:xlink="http://www.w3.org/1999/xlink" x="0px" y="0px"
	 viewBox="0 0 48 48" style="enable-background:new 0 0 48 48;" xml:space="preserve">
<style type="text/css">
	.st0{fill:#E33433;}
</style>
<path class="st0" d="M39,40.2H5.4c-2.4,0-4.7-1.7-4.7-5.5c0-0.5,0.4-0.9,0.9-0.9h41.3c0.5,0,0.9,0.4,0.9,0.9
	C43.8,38.5,41.4,40.2,39,40.2z M2.5,35.6c0.3,2.1,1.6,2.8,2.9,2.8H39c1.3,0,2.6-0.8,2.9-2.8H2.5z M47.2,16.2
	c-0.2-0.6-0.6-1.1-1.3-1.4c0,0,0-0.1,0-0.1c-0.2-1.4-1.2-2.3-2.5-2.2c-0.8,0.1-1.4,0.6-2,1.1c-0.1,0.1-0.2,0.2-0.3,0.3
	c-0.5,0.4-0.5,1-0.6,1.4c-0.1,0.7-0.5,0.9-0.8,0.9c-1.7,0.2-3.1,0.4-4.4,0.5c0.2-0.3,0.5-0.7,0.7-1c0.3-0.5,0.6-0.7,1.2-0.8
	c1-0.1,2.2-1,2.5-2c0.2-0.6,0.2-1.3-0.1-1.9c-0.3-0.6-0.9-1-1.5-1.1c0,0,0-0.1,0-0.1c-0.4-1.3-1.7-2.1-2.9-1.7
	c-0.8,0.2-1.3,0.9-1.7,1.4c-0.1,0.1-0.2,0.2-0.2,0.3c-0.4,0.5-0.3,1.1-0.3,1.5c0.1,0.7-0.3,1-0.6,1.1c-2.1,0.7-3.8,1.2-5.3,1.6
	c0,0-0.1,0-0.2,0c-2.4-1-4.7-1.5-6.5-1.5c-5.8,0-10.9,2.5-14.7,7.2c-2.7,3.4-3.8,8.2-2.5,11c0.6,1.4,1.8,2.1,3.2,2.1h23.3
	c4.5,0,10,0,11.6-2.8c0.8-1.4,0.5-3.2-0.9-5.4c-0.3-0.5-0.6-0.9-0.9-1.3c0.5-0.5,0.9-0.9,1.4-1.4c0.6-0.6,1.2-1.2,1.8-1.8
	c0.4-0.4,0.7-0.6,1.3-0.5c1,0.1,2.3-0.6,2.9-1.5C47.3,17.5,47.4,16.8,47.2,16.2z M33,13.9c1.3-0.4,2-1.6,1.8-3c0-0.1,0-0.2,0-0.3
	c0.1-0.1,0.1-0.1,0.2-0.2c0.3-0.3,0.6-0.8,0.8-0.8c0.3-0.1,0.6,0.2,0.7,0.5c0,0.1,0.4,1.1,1.2,1.2c0.3,0.1,0.5,0.2,0.5,0.3
	c0.1,0.1,0,0.3,0,0.4c-0.1,0.4-0.8,0.9-1,0.9c-1.3,0.1-2,0.8-2.5,1.5c-0.5,0.7-0.9,1.4-1.4,2.1c-0.4,0-0.9-0.1-1.3-0.1
	c-0.8-0.5-1.6-1-2.4-1.4C30.6,14.7,31.7,14.4,33,13.9z M4.8,29.8c-0.9-1.9-0.3-6,2.3-9.1c3.5-4.3,8.1-6.5,13.3-6.5
	c2,0,5,0.9,8.1,2.4c-2.9,0.6-5.2,2.1-7,4.7c-1.1,1.6-1.5,3.4-1.2,5.2c0.5,2.6,2.5,4.3,5.2,4.5H6.5C5.7,30.9,5.2,30.6,4.8,29.8z
	 M39,25.4c1,1.6,1.3,2.8,0.8,3.6c-1.1,1.9-6.5,1.9-10,1.9H27c0.2,0,0.4,0,0.6-0.1c3.6-0.6,6.4-2.7,8.7-4.6c0.7-0.6,1.4-1.2,2-1.8
	C38.5,24.7,38.8,25,39,25.4z M45.5,17.1c-0.2,0.3-0.9,0.7-1.2,0.7c-1.3-0.1-2.1,0.4-2.7,1c-0.6,0.6-1.2,1.2-1.8,1.8
	c-1.5,1.5-3,3-4.6,4.4c-2.2,1.9-4.6,3.7-7.8,4.2c-2.7,0.4-4.8-0.8-5.2-3c-0.2-1.3,0.1-2.7,0.9-3.8c1.9-2.7,4.4-4.1,7.7-4.1
	c0.3,0,0.7,0.1,1,0.1c0.9,0.1,1.7,0.2,2.6,0.2c1.7-0.1,3.4-0.2,5.7-0.5c1.4-0.2,2.2-1.1,2.3-2.5c0-0.1,0-0.2,0-0.3
	c0.1-0.1,0.1-0.1,0.2-0.2c0.3-0.3,0.7-0.6,1-0.7c0.3,0,0.5,0.3,0.5,0.7c0,0.1,0.2,1.1,0.9,1.5c0,0,0,0,0,0c0.2,0.1,0.4,0.2,0.5,0.4
	C45.6,16.8,45.5,17,45.5,17.1z"/>
</svg>
