<?xml version="1.0" encoding="utf-8"?>
<!-- Generator: Adobe Illustrator 22.0.1, SVG Export Plug-In . SVG Version: 6.00 Build 0)  -->
<svg version="1.1" id="Layer_1" xmlns="http://www.w3.org/2000/svg" xmlns:xlink="http://www.w3.org/1999/xlink" x="0px" y="0px"
	 viewBox="0 0 48 48" style="enable-background:new 0 0 48 48;" xml:space="preserve">
<style type="text/css">
	.st0{fill:#E33433;}
</style>
<path class="st0" d="M32.3,41.4c-4.6,0-9.2,0-13.8,0c-1.2,0-1.7-0.4-1.8-1.6c-0.1-0.8-0.7-1.3-1.5-1.3c-0.7,0-1.3,0.6-1.4,1.3
	c-0.1,1.2-0.6,1.6-1.8,1.6c-2.7,0-5.5,0-8.2,0c-2,0-3.2-1.2-3.2-3.1c0-6.7,0-13.3,0-20c0-2.6,1.3-4.6,3.1-6.3
	c2.3-2.1,5.1-3.4,8.1-4.2c3-0.9,6-1.2,9.1-1.2c0.3,0,0.6,0.1,0.9,0.2c8.3,3.8,16.7,7.6,25,11.4c0.4,0.2,0.6,0.4,0.6,0.9
	c0,1.2,0,2.3,0,3.5c0,0.9-0.6,1.4-1.5,1.5c-1.6,0.1-2.9,1.3-2.9,2.8c0,1.5,1.1,2.8,2.8,3c1.2,0.1,1.6,0.6,1.6,1.8c0,2.9,0,5.9,0,8.8
	c0,0.9-0.2,1.1-1,1.1C41.7,41.5,37,41.4,32.3,41.4z M45.9,19.7c-14.6,0-29.2,0-43.8,0c0,0.2,0,0.3,0,0.5c0,6,0,12.1,0,18.1
	c0,1.2,0.5,1.7,1.7,1.7c2.7,0,5.3,0,8,0c0.2,0,0.3,0,0.5,0c0.2-1.6,1.1-2.7,2.5-2.9c0.7-0.1,1.3,0,1.9,0.3c1,0.6,1.4,1.4,1.5,2.5
	c9.3,0,18.5,0,27.7,0c0-2.9,0-5.8,0-8.7c-2.4-0.3-4.1-1.8-4.3-3.8c-0.1-1,0.1-2,0.6-2.9c0.9-1.3,2.1-1.9,3.7-2.1
	C45.9,21.5,45.9,20.6,45.9,19.7z M43,18.2C43,18.1,43.1,18.1,43,18.2C43,18,42.9,18,42.8,17.9c-7.2-3.3-14.4-6.5-21.7-9.8
	C20.9,8,20.7,8,20.5,8c-2.1,0-4.2,0.2-6.3,0.7c-2.9,0.6-5.8,1.6-8.2,3.4c-1.7,1.2-3.1,2.6-3.6,4.6c-0.1,0.5-0.2,1-0.2,1.5
	C15.8,18.2,29.4,18.2,43,18.2z M21.1,32.7c0-2.4,2-4.3,4.4-4.3c2.4,0,4.4,2,4.4,4.4c0,2.4-2,4.4-4.4,4.3
	C23,37.1,21.1,35.1,21.1,32.7z M25.4,29.8c-1,0-1.7,0.4-2.3,1.1c-0.2,0.2-0.2,0.4,0,0.6c1.1,1.5,3.6,1.5,4.7,0
	c0.1-0.1,0.1-0.4,0-0.5C27.2,30.2,26.4,29.8,25.4,29.8z M22.6,33.2c0,1.3,1.5,2.5,3,2.5c1.4-0.1,2.8-1.3,2.7-2.4
	C26.4,34.5,24.5,34.5,22.6,33.2z M4.3,24.7c0-1.6,1.3-2.9,2.9-2.9c1.6,0,2.9,1.3,2.9,2.9c0,1.6-1.3,2.9-2.9,2.9
	C5.6,27.6,4.3,26.3,4.3,24.7z M8.7,24.7c0-0.8-0.6-1.4-1.5-1.4c-0.8,0-1.5,0.7-1.4,1.5c0,0.8,0.7,1.4,1.5,1.4
	C8,26.2,8.7,25.5,8.7,24.7z M43,34.9c0,1.6-1.3,2.9-2.9,2.9c-1.6,0-2.9-1.3-2.9-2.9c0-1.6,1.3-2.9,2.9-2.9C41.6,32,43,33.3,43,34.9z
	 M40.1,36.3c0.8,0,1.4-0.7,1.4-1.5c0-0.8-0.7-1.4-1.5-1.4c-0.8,0-1.5,0.7-1.4,1.5C38.6,35.7,39.3,36.4,40.1,36.3z M35.7,26.2
	c0,1.2-1,2.2-2.2,2.2c-1.2,0-2.2-1-2.2-2.2c0-1.2,1-2.2,2.2-2.2C34.7,24,35.7,24.9,35.7,26.2z M34.2,26.2c0-0.4-0.3-0.7-0.7-0.7
	c-0.5,0-0.7,0.3-0.7,0.8c0,0.4,0.3,0.7,0.7,0.7C34,26.9,34.2,26.6,34.2,26.2z M15.2,32.7c0,1.3-1,2.2-2.2,2.2c-1.2,0-2.2-1-2.2-2.2
	c0-1.2,1-2.2,2.2-2.2C14.3,30.6,15.2,31.5,15.2,32.7z M13.8,32.7c0-0.4-0.3-0.7-0.7-0.7c-0.4,0-0.7,0.3-0.7,0.7
	c0,0.4,0.3,0.7,0.7,0.7C13.5,33.4,13.8,33.1,13.8,32.7z M17.4,26.9c-0.8,0-1.5-0.6-1.5-1.4c0-0.8,0.7-1.5,1.5-1.4
	c0.8,0,1.5,0.7,1.5,1.5C18.9,26.2,18.2,26.9,17.4,26.9z M7.2,35.6c0,0.4-0.3,0.7-0.7,0.7c-0.4,0-0.8-0.3-0.7-0.8
	c0-0.4,0.3-0.7,0.8-0.7C6.9,34.9,7.2,35.2,7.2,35.6z M32.7,36.4c0.4,0,0.7,0.3,0.7,0.7c0,0.4-0.3,0.7-0.7,0.8
	c-0.4,0-0.8-0.3-0.8-0.7C32,36.7,32.3,36.4,32.7,36.4z M26.9,23.3c0,0.4-0.3,0.7-0.7,0.7c-0.4,0-0.8-0.3-0.7-0.7
	c0-0.4,0.3-0.7,0.7-0.7C26.6,22.5,26.9,22.8,26.9,23.3z"/>
</svg>
