<?xml version="1.0" encoding="utf-8"?>
<!-- Generator: Adobe Illustrator 22.0.1, SVG Export Plug-In . SVG Version: 6.00 Build 0)  -->
<svg version="1.1" id="Layer_1" xmlns="http://www.w3.org/2000/svg" xmlns:xlink="http://www.w3.org/1999/xlink" x="0px" y="0px"
	 viewBox="0 0 48 48" style="enable-background:new 0 0 48 48;" xml:space="preserve">
<style type="text/css">
	.st0{fill:#E33433;}
</style>
<path class="st0" d="M44.7,28.4c-0.8-1.3-2.3-2.3-4.1-2.7c-1.8-0.4-3.8-0.1-5.5,0.9c-0.1-0.5-0.3-1.1-0.5-1.5
	c2.4-0.6,6.7-2.1,7.2-4.1c0.1-0.3,0.1-0.6-0.1-1c0.8-0.1,1.5-0.7,1.8-1.5c0.9-2.5-1.4-7.4-5.8-10.1c-3.4-2.1-7.9-2.8-10.3,0.2
	l-0.7,0.9l1,0.3c0,0,2.7,0.9,4.6,2.5c-2.1,0-4.3,0-4.4,0.1l-1,0l0.3,0.9c0,0.1,1.5,5,8.5,5c0.3,0,0.6,0,0.9,0
	c0.3,0.2,0.6,0.4,0.9,0.6c-1.9,0.9-3.9,2.9-4.8,4c-1.9-1.4-4.9-2.2-8.7-2.2c-3.8,0-6.8,0.8-8.7,2.2c-1-1.1-2.9-3.1-4.8-4
	c0.3-0.2,0.6-0.4,0.9-0.6c0.3,0,0.6,0,0.9,0c7,0,8.5-5,8.5-5l0.3-0.9l-1,0c-0.1,0-2.4-0.1-4.4-0.1c1.9-1.6,4.6-2.4,4.6-2.5l1-0.3
	l-0.7-0.9c-2.4-3-6.9-2.3-10.3-0.2c-4.4,2.7-6.7,7.5-5.8,10.1c0.3,0.8,0.9,1.3,1.8,1.5c-0.2,0.4-0.2,0.8-0.1,1
	c0.5,2.1,4.8,3.5,7.2,4.1c-0.2,0.5-0.4,1-0.5,1.5c-1.7-0.9-3.7-1.2-5.5-0.9c-1.8,0.4-3.2,1.3-4.1,2.7c-0.3,0.5-0.1,1.1,0.3,1.4
	C3.8,29.9,4,30,4.1,30c0.3,0,0.7-0.2,0.9-0.5c0.5-0.9,1.5-1.5,2.7-1.7c1.6-0.3,3.3,0,4.8,1c0.1,0.1,0.2,0.1,0.3,0.1
	c0,0.3,0.1,0.6,0.2,1C11,29.6,9.2,30,7.6,30.9c-1.5,0.9-2.6,2.3-2.9,3.9c-0.1,0.5,0.2,1.1,0.8,1.2c0.1,0,0.1,0,0.2,0
	c0.5,0,0.9-0.3,1-0.8c0.2-1,0.9-1.9,2-2.6c1.4-0.8,3.1-1.1,4.8-0.6c0.1,0,0.2,0,0.2,0c0.2,0.3,0.3,0.6,0.5,0.9
	c-1.9,0.5-3.5,1.5-4.6,3c-1.1,1.4-1.5,3.1-1.2,4.7c0.1,0.5,0.5,0.8,1,0.8c0.1,0,0.1,0,0.2,0c0.6-0.1,0.9-0.6,0.8-1.2
	c-0.2-1,0.1-2.1,0.8-3.1c1-1.3,2.5-2.1,4.2-2.4c0,0,0,0,0.1,0c2,2.3,5,3.9,8.4,3.9c3.4,0,6.3-1.6,8.4-3.9c0,0,0,0,0.1,0
	c1.8,0.2,3.3,1.1,4.2,2.4c0.7,1,1,2.1,0.8,3.1c-0.1,0.5,0.3,1.1,0.8,1.2c0.1,0,0.1,0,0.2,0c0.5,0,0.9-0.3,1-0.8
	c0.3-1.5-0.1-3.2-1.2-4.7c-1.1-1.5-2.7-2.5-4.6-3c0.2-0.3,0.4-0.6,0.5-0.9c0.1,0,0.2,0,0.2,0c1.7-0.5,3.5-0.2,4.8,0.6
	c1,0.6,1.8,1.6,2,2.6c0.1,0.5,0.5,0.8,1,0.8c0.1,0,0.1,0,0.2,0c0.6-0.1,0.9-0.6,0.8-1.2c-0.3-1.5-1.4-2.9-2.9-3.9
	c-1.6-1-3.4-1.3-5.4-1.1c0.1-0.3,0.1-0.6,0.2-1c0.1,0,0.2-0.1,0.3-0.1c1.5-1,3.2-1.4,4.8-1c1.2,0.3,2.2,0.9,2.7,1.7
	c0.2,0.3,0.5,0.5,0.9,0.5c0.2,0,0.4,0,0.5-0.1C44.9,29.5,45,28.9,44.7,28.4z M29.1,13.7c1.2,0,3.2,0,4.6,0c0,0,0,0.1,0.1,0.1
	c0.1,0.2,0.3,0.5,0.4,0.8c0.3,0.6,0.6,1.3,1.1,2.1C31.6,16.6,29.8,14.9,29.1,13.7z M35.6,14c-0.2-0.3-0.3-0.7-0.5-0.9
	c-1.3-2.2-4.2-3.7-5.8-4.4c2-1.3,5-0.6,7.5,0.9c4.1,2.5,5.7,6.8,5.2,8.3c-0.1,0.3-0.3,0.6-1,0.5C37.5,18,36.4,15.7,35.6,14z
	 M39.3,20c0.2,0,0.4,0,0.6,0.1c0.2,0.1,0.5,0.3,0.5,0.5c-0.2,0.9-3.7,2.5-6.3,3C35.7,21.9,37.9,20,39.3,20z M18.9,13.7
	c-0.7,1.1-2.5,2.9-6.2,3c0.5-0.7,0.9-1.5,1.1-2.1c0.2-0.3,0.3-0.6,0.4-0.8c0,0,0-0.1,0.1-0.1C15.7,13.7,17.6,13.7,18.9,13.7z
	 M6,17.9c-0.5-1.5,1-5.7,5.2-8.3c1.6-1,3.4-1.6,5-1.6c0.9,0,1.8,0.2,2.5,0.7c-1.6,0.7-4.5,2.1-5.8,4.4c-0.2,0.3-0.3,0.6-0.5,0.9
	c-0.8,1.7-1.9,4-5.4,4.4C6.3,18.5,6.1,18.2,6,17.9z M7.7,20.6c0-0.2,0.3-0.4,0.5-0.5C8.3,20,8.5,20,8.7,20c1.4,0,3.6,1.9,5.2,3.7
	C11.4,23.1,7.9,21.6,7.7,20.6z M24,37.1c-5.4,0-9.8-5-9.8-9.2c0-5.4,7.5-5.8,9.8-5.8c2.3,0,9.8,0.4,9.8,5.8
	C33.8,32.1,29.4,37.1,24,37.1z"/>
</svg>
