<?xml version="1.0" encoding="utf-8"?>
<!-- Generator: Adobe Illustrator 22.0.1, SVG Export Plug-In . SVG Version: 6.00 Build 0)  -->
<svg version="1.1" id="Layer_1" xmlns="http://www.w3.org/2000/svg" xmlns:xlink="http://www.w3.org/1999/xlink" x="0px" y="0px"
	 viewBox="0 0 48 48" style="enable-background:new 0 0 48 48;" xml:space="preserve">
<style type="text/css">
	.st0{fill:#E33433;}
</style>
<path class="st0" d="M0.5,16.5c0.4-0.8,1.1-0.7,1.8-0.6c1.4,0.2,2.5,1,3.6,1.9c0.8,0.7,1.6,1.4,2.5,2c0.2,0.1,0.4,0.3,0.6,0.4
	c0.8,0.5,1.4,0.5,2.2-0.1c1.3-0.9,2.6-1.7,4-2.6c-0.3-0.4-0.6-0.8-0.9-1.2c-0.4-0.5-0.8-1.1-1.2-1.6c-0.6-0.8-0.5-1.3,0.3-1.8
	c2.7-1.7,5.5-3.2,8.5-4.3c2.4-0.9,4.9-1.4,7.4-1.5c0.6,0,1,0.2,1.3,0.7c1,1.7,2.1,3.5,3.2,5.2c0.1,0.2,0.4,0.3,0.6,0.4
	c1.4,0.6,2.9,1,4.2,1.8c3.2,1.9,6,4.2,8,7.5c0.2,0.3,0.4,0.7,0.6,1c0.6,1.2,0.6,2.5,0,3.7c-0.9,1.8-2.1,3.3-3.5,4.6
	c-2.3,2.3-5,4-8,5.2c-2.8,1-5.6,1.1-8.5,0.6c-0.8-0.2-1.6-0.4-2.4-0.5c-0.2,0-0.5,0-0.6,0.1c-1.6,1.1-3.2,2.2-4.9,3.3
	c-0.4,0.3-0.8,0.4-1.3,0.2c-1.5-0.6-3-1.2-4.4-1.8c-0.8-0.3-0.9-1.1-0.3-1.7c1-1.1,2-2.1,3.1-3.2c0.1-0.1,0.3-0.2,0.5-0.3
	c-0.8-0.5-1.5-0.9-2.2-1.3c-1.4-1-2.8-1.9-4.1-2.9c-0.3-0.2-0.7-0.3-1-0.1c-0.4,0.3-0.9,0.6-1.2,0.9c-0.8,0.7-1.5,1.5-2.3,2.1
	c-1.2,1-2.5,1.5-4.1,1.6c-0.6,0-1-0.1-1.3-0.6c0-0.5,0-1.1,0-1.6c0-0.2,0.1-0.3,0.1-0.5c0.2-2,0.7-3.9,1.5-5.6
	c0.1-0.2,0.1-0.4,0-0.6c-0.4-1.4-0.9-2.7-1.2-4.1c-0.2-1-0.3-2-0.4-3C0.5,17.5,0.5,17,0.5,16.5z M36.1,34.8c-6.1-4.7-6.1-14,0-18.7
	c-1.7-0.7-3.5-1.2-5.3-1.3c-2.5-0.1-5,0.4-7.4,1.2c-4.9,1.6-9.4,4.1-13.6,7.3c-1.2,0.9-1.2,2.4,0,3.4c3.3,2.7,6.7,5,10.5,6.7
	c3,1.4,6.1,2.4,9.4,2.6C32,36.2,34.1,35.7,36.1,34.8z M33.4,25.5c0,0.2,0,0.4,0,0.6c0,0.4,0.1,0.8,0.2,1.2c0.5,2.7,2,4.9,4.3,6.4
	c0.1,0.1,0.3,0.1,0.5,0c2.6-1.6,4.8-3.5,6.5-6.1c0.9-1.3,1.1-2.6,0.1-4c-0.1-0.1-0.1-0.2-0.1-0.2c-1.6-2.4-3.7-4.3-6.2-5.9
	c-0.4-0.2-0.6-0.2-1,0C34.9,19.4,33.5,22.1,33.4,25.5z M31.5,12.9c-0.8-1.3-1.5-2.4-2.2-3.6c-0.1-0.1-0.2-0.2-0.4-0.1
	c-0.9,0.1-1.8,0.2-2.6,0.3c-3.1,0.6-6,1.8-8.9,3.3c-0.8,0.4-1.6,0.9-2.4,1.4c0.6,0.9,1.2,1.7,1.8,2.5C21.5,14.4,26.2,12.8,31.5,12.9
	z M8.3,22.1c-0.5-0.3-0.9-0.6-1.3-0.9c-0.7-0.6-1.4-1.2-2.1-1.8c-0.7-0.6-1.4-1-2.3-1.3c0,0.2,0,0.3,0,0.4c0.2,2.2,0.8,4.4,1.6,6.4
	c0.2,0.4,0.1,0.7,0,1.1c-0.4,1-0.8,2-1.1,3c-0.3,0.9-0.4,1.9-0.6,2.9c0.2,0,0.3,0,0.3-0.1c0.1,0,0.1,0,0.2-0.1c1.1-0.3,2-1,2.8-1.8
	c0.8-0.7,1.5-1.5,2.3-2.2C6.6,26.1,6.7,23.8,8.3,22.1z M18.3,34.7c-1,1-1.9,1.9-2.9,2.9c0.5,0.2,1.1,0.4,1.6,0.7
	c0.9,0.5,1.6,0.4,2.4-0.2c0.8-0.7,1.7-1.2,2.6-1.8C20.7,35.8,19.5,35.2,18.3,34.7z M39,27.4c-1.1,0-1.9-0.9-1.8-2
	c0-1.1,0.9-1.9,1.9-1.9c1,0,1.9,0.9,1.9,1.9C41,26.5,40.1,27.4,39,27.4z"/>
</svg>
