<?xml version="1.0" encoding="utf-8"?>
<!-- Generator: Adobe Illustrator 22.0.1, SVG Export Plug-In . SVG Version: 6.00 Build 0)  -->
<svg version="1.1" id="Layer_1" xmlns="http://www.w3.org/2000/svg" xmlns:xlink="http://www.w3.org/1999/xlink" x="0px" y="0px"
	 viewBox="0 0 48 48" style="enable-background:new 0 0 48 48;" xml:space="preserve">
<style type="text/css">
	.st0{fill:#E33433;}
</style>
<path class="st0" d="M24.3,30.3c-2.4,2.4-4.7,4.9-7.1,7.3c-1.3,1.3-2.6,2.7-3.9,4c-0.9,0.9-1.5,0.9-2.4,0c-0.5-0.5-1.1-1-1.6-1.6
	c-1-1-1-1.6,0.1-2.6c3.6-3.4,7.2-6.8,10.9-10.1c0.2-0.2,0.5-0.4,0.8-0.7c-1.6-1.6-3.1-3.2-4.6-4.7c-0.2-0.1-0.7,0-1,0.1
	c-1.7,0.9-2.1,0.9-3.5-0.5c-2.8-2.8-5.7-5.6-8.5-8.4c-0.2-0.2-0.5-0.4-0.5-0.6c-0.1-0.2-0.1-0.7,0-0.8c0.2-0.1,0.6-0.2,0.9-0.1
	c0.3,0.1,0.5,0.4,0.7,0.6c2.8,2.7,5.6,5.4,8.3,8.2c0.7,0.7,1.2,0.8,2,0.3c1.5-1,1.6-0.9,2.9,0.4c1.4,1.4,2.8,2.9,4.3,4.4
	c0.5-0.4,0.9-0.8,1.4-1.3c-1.6-1.5-3.1-3-4.8-4.4c-0.9-0.8-1.2-1.5-0.3-2.4c0.8-0.9,0.6-1.6-0.3-2.4c-2.8-2.6-5.4-5.3-8.1-7.9
	C9.7,7.1,9.5,6.9,9.4,6.7C9.3,6.4,9.3,6,9.2,5.6c0.4,0,0.9-0.1,1.1,0.2c3.2,3.1,6.3,6.2,9.5,9.2c0.8,0.8,0.7,1.8,0.1,2.6
	c-0.6,0.8-0.4,1.2,0.3,1.8c1.4,1.2,2.8,2.6,4.3,4c1.6-1.5,3.2-3,4.8-4.5c0.2-0.2,0.2-0.7,0.1-1.1C28.2,12.3,34.2,5.8,40,6.4
	c3.2,0.3,5.3,2.5,5.2,5.7c-0.1,5.3-5.8,10.5-11.1,9.9c-1.3-0.2-2,0.2-2.8,1.1c-1.1,1.2-2.2,2.4-3.5,3.6c1,0.9,1.9,1.8,2.9,2.7
	c2.9,2.7,5.7,5.3,8.6,8c1.4,1.3,1.4,1.8,0,3.2c-0.4,0.4-0.7,0.7-1.1,1.1c-1.1,1.1-1.7,1.1-2.8,0c-2.9-3-5.8-6-8.7-9
	C26,31.8,25.2,31.2,24.3,30.3z M12.1,40.9c0.5-0.5,0.9-0.9,1.3-1.4c6-6.2,11.9-12.3,17.9-18.5c0.6-0.7,1.2-1,2.1-0.5
	c0.5,0.2,1.2,0.2,1.7,0.2c4-0.2,8.1-4,8.6-7.9c0.4-3.4-1.9-5.6-5.4-5c-3.7,0.6-7.2,3.9-7.8,7.5c-0.1,0.8-0.1,1.8,0.2,2.6
	c0.3,0.9,0.1,1.4-0.6,2c-6.5,6-12.9,12-19.4,18c-0.3,0.3-0.7,0.5-1.1,0.8C10.7,39.6,11.4,40.2,12.1,40.9z M25.3,29.1
	c4,4.1,7.7,8,11.5,11.8c0.7-0.7,1.4-1.4,2.1-2.1c-3.9-3.7-7.9-7.4-11.8-11.1C26.4,28.2,25.9,28.6,25.3,29.1z M5.5,9.5
	C5.8,9.6,6,9.8,6.2,10c2.1,2.1,4.3,4.2,6.4,6.3c0.2,0.2,0.2,0.8,0.3,1.2c-0.4-0.1-0.9,0-1.2-0.2c-2.2-2.1-4.4-4.2-6.5-6.4
	C5,10.6,4.9,10.2,4.9,9.9C4.9,9.8,5.3,9.6,5.5,9.5z M7.6,7.4c0.3,0.2,0.5,0.3,0.8,0.5c2.1,2.1,4.3,4.1,6.3,6.2
	c0.2,0.3,0.2,0.8,0.3,1.2c-0.4-0.1-1,0-1.3-0.3c-2.2-2-4.3-4.1-6.4-6.2C7.1,8.6,7,8.2,7,7.8C7,7.7,7.3,7.6,7.6,7.4z"/>
</svg>
