<?xml version="1.0" encoding="utf-8"?>
<!-- Generator: Adobe Illustrator 22.0.1, SVG Export Plug-In . SVG Version: 6.00 Build 0)  -->
<svg version="1.1" id="Layer_1" xmlns="http://www.w3.org/2000/svg" xmlns:xlink="http://www.w3.org/1999/xlink" x="0px" y="0px"
	 viewBox="0 0 48 48" style="enable-background:new 0 0 48 48;" xml:space="preserve">
<style type="text/css">
	.st0{fill:#E33433;}
</style>
<path class="st0" d="M47.1,32.1c-1.2,3.6-4.2,5.2-7.4,6.5C34,40.8,28,41.3,21.9,41.1c-5-0.2-9.9-0.9-14.5-3
	c-0.7-0.3-1.4-0.7-2.1-1.1c-2-1.2-3.6-2.7-4.3-5c0-5.4,0-10.7,0-16.1c1-3.3,3.6-4.9,6.4-6.1c4.9-2.2,10.1-2.9,15.4-3
	c6-0.1,11.9,0.5,17.5,2.8c0.8,0.4,1.7,0.8,2.5,1.2c2.1,1.2,3.7,2.8,4.4,5.2C47.1,21.5,47.1,26.8,47.1,32.1z M2.2,20.2
	c0,0.6,0,0.9,0,1.2c0,3,0,6,0,9c0,1.8,0.6,3.3,2,4.2c1.8,1.1,3.6,2.3,5.6,3c8.3,2.8,16.7,2.8,25.2,1c3.1-0.7,6.2-1.8,8.7-3.9
	c1.4-1.1,2.1-2.5,2-4.3c-0.1-3,0-6.1,0-9.1c0-0.3,0-0.6-0.1-1.1c-2.2,2.4-4.9,3.6-7.7,4.5c-7.8,2.4-15.7,2.6-23.7,1.1
	C10,25,5.8,23.7,2.2,20.2z M24,7.9c-3.2,0.4-6.4,0.6-9.5,1.2c-3.6,0.6-7.1,1.7-10.1,4c-2.8,2.2-2.9,5.1,0,7.2
	c1.6,1.2,3.5,2.2,5.4,2.8c8.8,2.9,17.8,2.9,26.7,0.6c2.7-0.7,5.2-1.7,7.3-3.5c2.5-2.1,2.5-4.8,0-6.9c-1.2-1-2.6-1.8-4-2.4
	C34.8,8.8,29.4,8.2,24,7.9z M20.1,34.1c-0.5,0.6-0.9,1.3-1.4,1.8c-0.2,0.2-0.7,0.2-1,0.3c0-0.4-0.1-0.8,0-1.1c0.4-0.7,1-1.4,1.5-2.2
	c-0.5-0.7-1.1-1.4-1.5-2.1c-0.2-0.3-0.1-0.8-0.1-1.2c0.4,0.1,0.8,0.2,1.1,0.4c0.5,0.5,0.8,1.1,1.1,1.4c1.7-0.4,3.3-1,4.9-1.2
	c1.9-0.2,3.7,0.6,5.2,1.8c0.8,0.6,0.7,1.2,0,1.9c-2.6,2.1-6.1,2.4-9,0.7C20.7,34.5,20.4,34.3,20.1,34.1z M28.9,33
	c-2.5-1.8-5.6-1.8-7.8,0C23,34.9,26.8,34.9,28.9,33z M23.3,8.8c5.7,0,10.6,0.5,15.3,2.4c1.5,0.6,2.9,1.4,4.1,2.5
	c2.1,1.8,2.1,4.2,0.1,6.1c-1.7,1.7-3.9,2.6-6.2,3.2c-6,1.7-12.1,2-18.2,1.4c-3.2-0.3-6.3-0.9-9.2-2.2c-1.4-0.7-2.9-1.5-4.1-2.5
	c-2-1.8-1.8-4.2,0.1-6c1.7-1.6,3.8-2.5,5.9-3.1C15.3,9.2,19.6,8.7,23.3,8.8z M21.1,10c-2.3,0.3-4.4,0.5-6.4,0.9
	c-2.6,0.5-5.2,1.3-7.5,2.7c-3,1.9-3,4.2,0,6c1.4,0.9,3,1.6,4.7,2.1c5.5,1.7,11.1,1.9,16.8,1.4c3.7-0.3,7.3-0.9,10.7-2.7
	c1.1-0.6,2.2-1.4,3.1-2.3c0.8-0.8,0.8-2,0.1-2.9c-0.7-0.8-1.6-1.7-2.5-2.1c-2.3-0.9-4.6-1.7-7-2.3c-1.8-0.5-3.7-0.6-5.8-0.9
	c0.5,1.3,0.8,2.3,1.2,3.3c0.5,1.5-0.4,2.7-2,2.8c-1.4,0-2.9,0-4.3,0c-1.6,0-2.4-1.2-2-2.7C20.4,12.4,20.7,11.4,21.1,10z M24.3,14.9
	c0.6,0,1.3,0,1.9,0c0.9,0,1.2-0.4,0.9-1.3c-0.3-0.8-0.6-1.6-0.8-2.3c-0.2-0.8-0.7-1.1-1.5-1c-2.9,0.1-2.2-0.3-3.1,2.3
	c-0.1,0.4-0.2,0.7-0.3,1.1c-0.2,0.9,0,1.2,0.9,1.2C23,14.9,23.6,14.9,24.3,14.9z M24.2,14c-0.4,0-0.8,0.1-1.2,0
	c-0.2-0.1-0.5-0.4-0.5-0.6c0-0.2,0.3-0.6,0.5-0.6c0.8-0.1,1.6-0.1,2.3,0c0.2,0,0.5,0.4,0.7,0.6c-0.2,0.2-0.5,0.6-0.7,0.7
	C25,14.1,24.6,14.1,24.2,14C24.2,14,24.2,14,24.2,14z"/>
</svg>
