<?xml version="1.0" encoding="utf-8"?>
<!-- Generator: Adobe Illustrator 22.0.1, SVG Export Plug-In . SVG Version: 6.00 Build 0)  -->
<svg version="1.1" id="Layer_1" xmlns="http://www.w3.org/2000/svg" xmlns:xlink="http://www.w3.org/1999/xlink" x="0px" y="0px"
	 viewBox="0 0 48 48" style="enable-background:new 0 0 48 48;" xml:space="preserve">
<style type="text/css">
	.st0{fill:#E33433;}
</style>
<path class="st0" d="M23.2,35.5c-0.6,0.2-1.2,0.5-1.8,0.7C20,36.5,18.7,36,17.7,35c-0.8-0.8-1.6-1.7-2.4-2.6c-0.4-0.5-0.4-0.9,0-1.4
	c0.8-0.8,1.6-1.7,2.5-2.4c1.3-1.2,3.2-1.4,4.7-0.6c0.2,0.1,0.3,0.2,0.6,0.3c0-0.9,0-1.8,0-2.7c-0.4-0.1-0.8-0.2-1.2-0.3
	c-3.7-0.9-6.4-4.4-6.4-8.4c0-3.1,0-6.2,0-9.3c0-1.1,0.2-1.3,1.3-1.3c0.1,0,0.2,0,0.4,0c0-0.8,0-1.6,0-2.4c0-1,0.3-1.3,1.3-1.2
	c0.8,0.1,1.6,0.3,2.4,0.5c0.3,0.1,0.4,0,0.6-0.2c0.4-0.4,0.7-0.9,1.1-1.3c0.8-0.9,1.9-0.9,2.7,0c0.5,0.5,0.8,1.3,1.4,1.5
	C27.2,3.5,28,3.1,28.6,3c0.4-0.1,0.8-0.1,1.2-0.1c0.7,0,1,0.3,1,1c0,0.9,0,1.7,0,2.5c0.1,0,0.1,0.1,0.2,0c1.1-0.2,1.6,0.1,1.6,1.6
	c-0.1,2.8,0,5.7,0,8.5c0,4.7-2.9,8.2-7.4,9c-0.1,0-0.1,0-0.2,0c0,2.6,0,5.3,0,7.8c0.6-0.2,1.1-0.5,1.7-0.6c1.4-0.3,2.7,0.1,3.7,1.1
	c0.9,0.8,1.6,1.8,2.5,2.7c0.4,0.4,0.4,0.9,0,1.3c-0.9,0.9-1.7,1.7-2.6,2.6c-1.3,1.2-3.2,1.4-4.7,0.5c-0.1-0.1-0.3-0.2-0.5-0.3
	c0,0.2,0,0.3,0,0.5c0,1.5,0,3,0,4.5c0,0.7-0.3,1.1-0.8,1.1c-0.5,0-0.9-0.4-0.9-1.1c0-3.2,0-6.4,0-9.6C23.2,35.8,23.2,35.6,23.2,35.5
	z M17.2,8.3c0,0.2,0,0.3,0,0.5c0,2.8,0,5.5,0,8.3c0,3,1.9,5.7,4.6,6.6c1.3,0.4,2.6,0.5,3.9,0.1c0-2,0-4,0-5.9
	c-0.1-3.9-1.9-6.7-5.2-8.5C19.5,8.7,18.4,8.3,17.2,8.3z M25.1,10.9c0.1,0.1,0.1,0.2,0.2,0.3c1.1,1.6,1.9,3.4,2,5.4
	c0.1,1.9,0.1,3.8,0.1,5.6c0,0.2,0,0.4,0,0.7c0.2-0.1,0.4-0.2,0.5-0.3c1.9-1.4,2.9-3.2,2.9-5.6c0-2.8,0-5.7,0-8.5c0-0.1,0-0.2,0-0.4
	C28.6,8.5,26.7,9.4,25.1,10.9z M23,31c-0.5-1.6-2.4-2.3-3.7-1.3c-0.8,0.6-1.5,1.4-2.3,2.1c0.7,0.7,1.3,1.5,2,2.1
	c0.2,0.2,0.6,0.4,0.9,0.5c1.3,0.4,2.8-0.4,3-1.7c-0.5,0-0.9,0-1.4,0c-0.5,0-0.9-0.3-0.9-0.8c0-0.5,0.4-0.9,0.9-0.9
	C22,31,22.5,31,23,31z M25,38c0.1,0.2,0.1,0.3,0.1,0.4c0.7,1.3,2.3,1.9,3.5,1c0.8-0.6,1.6-1.4,2.4-2.1c-0.7-0.8-1.3-1.5-2-2.1
	c-0.5-0.5-1.2-0.7-1.9-0.6c-1,0.1-1.9,0.9-2,1.7c0,0,0.1,0,0.1,0c0.4,0,0.8,0,1.2,0c0.6,0,1,0.3,1,0.9c0,0.5-0.4,0.9-1,0.9
	C25.9,38,25.5,38,25,38z M18.9,4.7c0,0.7,0,1.4,0,2.1c1.9,0.5,3.6,1.5,5,2.8c0.6-0.3,0.6-0.6,0.3-1.1C23.1,6.3,21.4,5.1,18.9,4.7z
	 M26,8C27,7.6,28,7.1,29.1,6.7c0-0.6,0-1.3,0-2c-1.5,0.2-2.8,0.8-3.9,1.9C25.5,7.1,25.7,7.6,26,8z M22.8,4.3c0.5,0.4,0.9,0.7,1.2,1
	c0.4-0.3,0.8-0.6,1.2-1c-0.4-0.4-0.8-0.9-1.1-1.3C23.6,3.5,23.2,3.9,22.8,4.3z"/>
</svg>
