<?xml version="1.0" encoding="utf-8"?>
<!-- Generator: Adobe Illustrator 22.0.1, SVG Export Plug-In . SVG Version: 6.00 Build 0)  -->
<svg version="1.1" id="Layer_1" xmlns="http://www.w3.org/2000/svg" xmlns:xlink="http://www.w3.org/1999/xlink" x="0px" y="0px"
	 viewBox="0 0 48 48" style="enable-background:new 0 0 48 48;" xml:space="preserve">
<style type="text/css">
	.st0{fill:#E33433;}
</style>
<path class="st0" d="M15.9,48c0-0.1,0-0.2,0-0.3c0-9.2,0-18.5,0-27.7c0-1.9,0.8-3.4,2.6-4.2c0.2-0.1,0.4-0.2,0.6-0.2
	c0.9-0.2,1.3-0.8,1.3-1.6c0-3.1,0-6.2,0-9.3c-0.3,0-0.5,0-0.8,0c0-1.5,0-3,0-4.5c3,0,5.9,0,8.9,0c0,1.5,0,3,0,4.5
	c-0.3,0-0.5,0-0.8,0.1c0,0.2,0,0.4,0,0.5c0,2.8,0,5.5,0,8.3c0,1.3,0.3,1.8,1.5,2.2c1.9,0.7,3,2.3,3,4.3c0,5,0,10.1,0,15.1
	c0,4.1,0,8.2,0,12.4c0,0.2,0,0.4,0,0.7C26.7,48,21.3,48,15.9,48z M30.3,46.2c0-0.2,0-0.4,0-0.6c0-5.1,0-10.2,0-15.3
	c0-3.4,0-6.9,0-10.3c0-1.4-0.6-2.3-1.8-2.7c-1.9-0.7-2.7-1.9-2.7-3.9c0-0.5,0-1,0-1.6c-1.2,0-2.4,0-3.6,0c0,0.6,0,1.3,0,1.9
	c0,1.6-1,3-2.3,3.5c-1.6,0.6-2.2,1.3-2.2,3c0,8.5,0,17,0,25.5c0,0.2,0,0.4,0,0.6C21.9,46.2,26.1,46.2,30.3,46.2z M26.7,2.7
	c0-0.3,0-0.6,0-0.8c-1.8,0-3.6,0-5.3,0c0,0.3,0,0.6,0,0.8c0.3,0,0.6,0,0.9,0.1c0,2.4,0,4.8,0,7.2c1.2,0,2.4,0,3.6,0
	c0-2.4,0-4.8,0-7.2C26.1,2.7,26.4,2.7,26.7,2.7z M19.5,21.8c3,0,6,0,8.9,0c0,0.2,0,0.4,0,0.5c0,4.5,0,13.6,0,18.1
	c0,0.5-0.1,0.6-0.6,0.6c-2.6,0-5.3,0-7.9,0c-0.4,0-0.5-0.1-0.5-0.5c0-4.5,0-13.7,0-18.3C19.5,22.1,19.5,21.9,19.5,21.8z M26.7,39.1
	c0-3.6,0-11.9,0-15.5c-1.8,0-3.6,0-5.3,0c0,3.6,0,11.9,0,15.5C23.1,39.1,24.9,39.1,26.7,39.1z"/>
</svg>
