<?xml version="1.0" encoding="utf-8"?>
<!-- Generator: Adobe Illustrator 22.0.1, SVG Export Plug-In . SVG Version: 6.00 Build 0)  -->
<svg version="1.1" id="Layer_1" xmlns="http://www.w3.org/2000/svg" xmlns:xlink="http://www.w3.org/1999/xlink" x="0px" y="0px"
	 viewBox="0 0 48 48" style="enable-background:new 0 0 48 48;" xml:space="preserve">
<style type="text/css">
	.st0{fill:#E33433;}
</style>
<path class="st0" d="M26.3,9.3c2.1-0.9,4.1-1.9,6.1-2.6c5.4-1.8,9.4,0.3,11.1,5.8c2.3,7.6,0.8,14.6-3.4,21.1c-1.7,2.6-3.4,5.2-6,7
	c-4.4,3.1-9.3,3.8-14.4,3.1c-4.8-0.7-9-2.5-12.2-6.2C4.1,33.6,2.9,29,3.6,24c0.3-1.8,1-3.6,1.3-5.4C5.2,17.4,5,16.2,5,15
	C5.1,8.2,9,3.6,16.3,4.1C20.4,4.4,23.7,6.3,26.3,9.3z M10.5,30.4c2,0.7,3.8,1.2,5.5,1.8c0.1-0.1,0.1-0.2,0.2-0.4
	c-1.2-3.1-2.2-6.2-2.5-9.7c1.4,3.4,2.7,6.5,3.9,9.7c2.9-0.6,4.7-2.4,6.5-4.2c-0.5,1.3-1,2.5-1.9,3.5c-0.9,1-2.1,1.7-3.2,2.6
	c0.9,1.1,1.9,2.4,2.8,3.7c0.6,0.8,1.2,0.9,2,0.6c3.2-1,5.6-3.1,7.7-5.7c0.3-0.3,0.5-0.6,0.8-1c0.1,0.1,0.2,0.2,0.2,0.2
	c-2,3.6-4.6,6.6-8.6,8.2c0.6,0.5,1,1,1.5,1.4c0.3,0.2,0.8,0.4,1.2,0.3c2.7-0.5,5-1.6,7.1-3.4c1.5-1.3,2.3-2.6,2.1-4.8
	c-1.1-9.4-6.3-12.9-13.9-14.4c-2.6-0.5-5.3-0.3-7.9-0.3c-1,0-2.1,0.2-3.1,0.4c-1.3,0.2-2.5,0.5-3.7,1c-0.4,0.2-0.9,0.9-1,1.4
	c-0.3,2.1-0.5,4.3-0.5,6.4c0,2.1,0.6,4.2,1.7,6c2.8,4.7,7.1,7,12.3,7.8c0.9,0.1,1.9,0.2,3,0.3c-0.8-1.3-1.8-1.8-3-2
	c-2-0.3-3.6-1.3-5.3-2.7c1.9,0.5,3.6,1,5.6,1.5c-0.9-1.6-1.7-2.9-2.4-4.2c-0.3-0.6-0.7-1-1.4-1.1C14,32.9,12.2,31.8,10.5,30.4z
	 M40.3,15.6c0.1,0.1,0.3,0.2,0.4,0.3c-0.5,0.9-1,1.9-1.7,2.8c-0.5,0.6-0.6,1.1-0.3,1.9c1,2.3,1.3,4.8,1.1,7.4c0,0.6-0.1,1.2-0.2,1.8
	c0.3-0.1,0.4-0.3,0.5-0.5c1.2-2.7,2-5.5,2.2-8.4c0.2-3.4-0.1-6.8-1.9-9.8c-0.6-1-1.7-2.1-2.7-2.4c-3.1-1-5.8,0.5-8.7,2
	c3.2,1.4,5.6,3.3,7.8,6.2c0.2-2.3,0.4-4.3,0.6-6.4c0.1,0,0.2,0,0.2,0c0.2,2.5,0.3,5,0.5,7.5c0.1,0.1,0.2,0.1,0.3,0.2
	C39,17.1,39.7,16.4,40.3,15.6z M7.2,17.7c0.9-0.5,1.7-0.7,2.3-1.3c1.2-1,2.1-2.3,3.3-3.3c0.6-0.5,0.8-1,0.5-1.8
	C13,10.2,12.8,9,12.6,7.8c0.1,0,0.2-0.1,0.3-0.1c0.6,1.3,1.2,2.5,1.7,3.5c2.9-0.8,5.7-1.5,8.3-2.3c-1.8-1.4-3.9-2.5-6.4-2.7
	c-2.7-0.2-5.3,0.1-7.2,2.3C7,11.1,6.8,14.2,7.2,17.7z M37.5,29.1c0.9-5.5-0.9-10-4.9-13.7C32.3,15.1,32,15,31.7,15
	c-3-0.5-6-0.2-8.8,1c-0.3,0.1-0.7,0.4-1.2,0.6C29.4,18.1,34.7,20.8,37.5,29.1z M28,12.6c-3.7-2.8-13.7-0.3-15.7,3.8
	c1.8,0,3.7,0,5.5,0c0.5,0,1-0.3,1.4-0.6c1.3-1,2.6-2,4.3-2.3C25,13.3,26.5,13,28,12.6z"/>
</svg>
