<svg xmlns="http://www.w3.org/2000/svg" viewBox="0 0 260.7 260.63"><defs><style>.cls-1{fill:#fff;}</style></defs><title>3Ресурс 1</title><g id="Слой_2" data-name="Слой 2"><g id="Слой_2-2" data-name="Слой 2"><path class="cls-1" d="M223.58,221.56c-33.86,34.57-85.74,47.74-132,33.29-45.4-14.19-80.77-53.4-89.43-100.29-8.78-47.56,9.5-97.18,47.72-127C92.57-5.79,152.37-9.14,198.7,19c4.48,2.72,3.33,8.25-.25,10.31-8.88,5-17.82,10-26.66,15.1-10.48,6.08-11.31,16.76-7.16,26.59l25.06,59.28q5.16,12.21,10.33,24.42a46.13,46.13,0,0,1,2.66,6.92,21.23,21.23,0,0,1-9.1,22.53c-6.6,4.34-14.33,7-22.27,6-4.41-.56-8.27-2.31-12.2-4.23l-28.74-14c-7.55-3.67-15.24-7.15-22.68-11-16-8.37-15.84-28-14.31-43.7.74-7.63,12.75-7.68,12,0a100.26,100.26,0,0,0-.32,17.15c.31,4.19.63,8.76,3.38,12.14,2.34,2.88,5.78,4.28,9,5.85L149.61,168c6.36,3.1,12.7,6.79,19.33,9.32,9.49,3.63,25.71-3.56,21.46-14.81-6.8-18-15-35.52-22.49-53.21q-5.91-14-11.81-27.93c-2.81-6.64-6.2-13.25-6.22-20.64A30.5,30.5,0,0,1,160.5,37.68c3.17-2.68,6.89-4.57,10.48-6.6l12.19-6.9C137.65,1.91,81.64,10.61,45.67,47.35,14.82,78.84,4.11,125.89,17.93,167.71c13.54,41,49.6,71.68,92,79.26,43,7.7,88-10,114.53-44.58,30.17-39.28,32.13-94,5.93-135.84C226.23,60,236.62,54,240.71,60.49a134.27,134.27,0,0,1,9.84,18.88C270.89,127.41,260,184.32,223.58,221.56Z"/></g></g></svg>